<svg width="16" height="16" viewBox="0 0 16 16" fill="none" xmlns="http://www.w3.org/2000/svg">
<path fill-rule="evenodd" clip-rule="evenodd" d="M14.0429 15.4571C14.4334 15.8476 15.0666 15.8476 15.4571 15.4571C15.8476 15.0666 15.8476 14.4334 15.4571 14.0429L9.41421 8L15.4571 1.95711C15.8476 1.56658 15.8476 0.933418 15.4571 0.542894C15.0666 0.15237 14.4334 0.15237 14.0429 0.542894L8 6.58579L1.95711 0.542893C1.56658 0.152369 0.933418 0.152369 0.542894 0.542893C0.152369 0.933417 0.152369 1.56658 0.542894 1.95711L6.58579 8L0.542894 14.0429C0.152369 14.4334 0.152369 15.0666 0.542894 15.4571C0.933418 15.8476 1.56658 15.8476 1.95711 15.4571L8 9.41421L14.0429 15.4571Z" fill="white" fill-opacity="0.5"/>
</svg>
