<svg width="13" height="13" viewBox="0 0 13 13" fill="none" xmlns="http://www.w3.org/2000/svg">
<path fill-rule="evenodd" clip-rule="evenodd" d="M12.2121 1.68931C12.2807 1.62078 12.3352 1.53939 12.3724 1.44981C12.4095 1.36022 12.4287 1.26419 12.4288 1.1672C12.4288 1.07022 12.4098 0.974164 12.3727 0.884535C12.3357 0.794905 12.2813 0.713453 12.2128 0.644829C12.1442 0.576205 12.0628 0.521753 11.9733 0.484582C11.8837 0.44741 11.7876 0.428248 11.6907 0.428188C11.5937 0.428129 11.4976 0.447173 11.408 0.484234C11.3183 0.521296 11.2369 0.575647 11.1683 0.644187L6.71429 5.09818L2.26158 0.644187C2.12299 0.505595 1.93502 0.427734 1.73902 0.427734C1.54302 0.427734 1.35505 0.505595 1.21645 0.644187C1.07786 0.78278 1 0.970752 1 1.16675C1 1.36275 1.07786 1.55072 1.21645 1.68931L5.67044 6.14202L1.21645 10.5947C1.14783 10.6633 1.09339 10.7448 1.05625 10.8345C1.01912 10.9241 1 11.0202 1 11.1173C1 11.2143 1.01912 11.3104 1.05625 11.4001C1.09339 11.4898 1.14783 11.5712 1.21645 11.6399C1.35505 11.7784 1.54302 11.8563 1.73902 11.8563C1.83607 11.8563 1.93216 11.8372 2.02183 11.8C2.11149 11.7629 2.19296 11.7085 2.26158 11.6399L6.71429 7.18586L11.1683 11.6399C11.3069 11.7783 11.4948 11.856 11.6907 11.8559C11.8865 11.8557 12.0743 11.7778 12.2128 11.6392C12.3512 11.5006 12.4289 11.3127 12.4288 11.1168C12.4286 10.921 12.3507 10.7331 12.2121 10.5947L7.75813 6.14202L12.2121 1.68931Z" fill="#112211" stroke="black" stroke-width="0.714286"/>
</svg>
